<svg xmlns="http://www.w3.org/2000/svg" width="143" height="40" viewBox="0 0 143 40">
  <g id="logo" transform="translate(-1052 -10)">
    <rect id="Rectangle_1849" data-name="Rectangle 1849" width="143" height="40" transform="translate(1052 10)" fill="none"/>
    <g id="Group_3251" data-name="Group 3251" transform="translate(1053.702 11.471)">
      <path id="Path_5353" data-name="Path 5353" d="M2.016-3.913v-22.06H6.891v8.933h3.4v-8.933h4.9v22.06H10.3v-9.641h-3.4v9.641Zm22.849.327a7.564,7.564,0,0,1-3.922-.871,4.873,4.873,0,0,1-2.07-2.506,10.88,10.88,0,0,1-.626-3.894v-8.2a10.743,10.743,0,0,1,.626-3.894,4.816,4.816,0,0,1,2.07-2.465,7.662,7.662,0,0,1,3.922-.858,7.8,7.8,0,0,1,3.963.858,4.8,4.8,0,0,1,2.083,2.465,10.743,10.743,0,0,1,.626,3.894v8.2a10.88,10.88,0,0,1-.626,3.894,4.855,4.855,0,0,1-2.083,2.506A7.7,7.7,0,0,1,24.865-3.586Zm0-3.459a1.458,1.458,0,0,0,1.117-.381,1.9,1.9,0,0,0,.463-.98,6.838,6.838,0,0,0,.109-1.226V-20.253a6.769,6.769,0,0,0-.109-1.239,1.894,1.894,0,0,0-.463-.967,1.458,1.458,0,0,0-1.117-.381,1.381,1.381,0,0,0-1.062.381,1.894,1.894,0,0,0-.463.967,6.769,6.769,0,0,0-.109,1.239V-9.632a7.789,7.789,0,0,0,.1,1.226,1.877,1.877,0,0,0,.436.98A1.412,1.412,0,0,0,24.865-7.045Zm9.641,3.132v-22.06h5.746a15.815,15.815,0,0,1,2.683.218,6.164,6.164,0,0,1,2.247.831,4.182,4.182,0,0,1,1.539,1.743,6.772,6.772,0,0,1,.558,2.982,5.658,5.658,0,0,1-.395,2.247,3.546,3.546,0,0,1-1.117,1.457,4.084,4.084,0,0,1-1.729.735,4.379,4.379,0,0,1,2.151.831,4.134,4.134,0,0,1,1.321,1.784,7.223,7.223,0,0,1,.449,2.7,8.684,8.684,0,0,1-.449,2.955,5.1,5.1,0,0,1-1.294,2.029,5.261,5.261,0,0,1-2.083,1.171,9.686,9.686,0,0,1-2.846.381Zm4.875-3.4h1.035a2.616,2.616,0,0,0,2.22-.817,3.955,3.955,0,0,0,.613-2.4,5.881,5.881,0,0,0-.272-1.988,1.936,1.936,0,0,0-.9-1.076,3.549,3.549,0,0,0-1.689-.34H39.381Zm0-9.831h.953a3.357,3.357,0,0,0,1.689-.34,1.708,1.708,0,0,0,.776-.994,5.339,5.339,0,0,0,.2-1.58,3.062,3.062,0,0,0-.313-1.457,2.035,2.035,0,0,0-.926-.885,3.5,3.5,0,0,0-1.539-.3h-.844ZM56.838-3.586a7.564,7.564,0,0,1-3.922-.871,4.873,4.873,0,0,1-2.07-2.506,10.88,10.88,0,0,1-.626-3.894v-8.2a10.743,10.743,0,0,1,.626-3.894,4.816,4.816,0,0,1,2.07-2.465,7.662,7.662,0,0,1,3.922-.858,7.8,7.8,0,0,1,3.963.858,4.8,4.8,0,0,1,2.083,2.465,10.743,10.743,0,0,1,.626,3.894v8.2a10.88,10.88,0,0,1-.626,3.894A4.855,4.855,0,0,1,60.8-4.458,7.7,7.7,0,0,1,56.838-3.586Zm0-3.459a1.458,1.458,0,0,0,1.117-.381,1.9,1.9,0,0,0,.463-.98,6.837,6.837,0,0,0,.109-1.226V-20.253a6.77,6.77,0,0,0-.109-1.239,1.894,1.894,0,0,0-.463-.967,1.458,1.458,0,0,0-1.117-.381,1.381,1.381,0,0,0-1.062.381,1.894,1.894,0,0,0-.463.967,6.769,6.769,0,0,0-.109,1.239V-9.632a7.788,7.788,0,0,0,.1,1.226,1.877,1.877,0,0,0,.436.98A1.412,1.412,0,0,0,56.838-7.045ZM72.8-3.586A7.422,7.422,0,0,1,68.835-4.5a4.914,4.914,0,0,1-2.056-2.56,11.356,11.356,0,0,1-.6-3.881v-7.952a11.538,11.538,0,0,1,.6-3.935,4.849,4.849,0,0,1,2.056-2.546,7.512,7.512,0,0,1,3.963-.9,7.619,7.619,0,0,1,3.826.8,4.435,4.435,0,0,1,1.947,2.247,8.973,8.973,0,0,1,.572,3.323v1.906H74.377V-20.2a11.1,11.1,0,0,0-.068-1.253,1.847,1.847,0,0,0-.395-.994,1.378,1.378,0,0,0-1.117-.395,1.446,1.446,0,0,0-1.13.409,1.931,1.931,0,0,0-.463,1.021,8.415,8.415,0,0,0-.1,1.294V-9.741a6.886,6.886,0,0,0,.123,1.348,1.864,1.864,0,0,0,.49.98,1.458,1.458,0,0,0,1.076.368,1.34,1.34,0,0,0,1.089-.395A1.963,1.963,0,0,0,74.3-8.461a9.888,9.888,0,0,0,.082-1.28v-2.315h4.766v1.906a9.5,9.5,0,0,1-.558,3.363,4.611,4.611,0,0,1-1.934,2.342A7.282,7.282,0,0,1,72.8-3.586Zm11-.327V-22.35H80.477v-3.622H92v3.622H88.7V-3.913Zm10.213,0v-22.06h3.84v12.637l5.637-12.637h3.159v22.06h-3.922V-16.767L96.981-3.913Zm15.605,0V-8.107h4.194v4.194Zm5.964,0,4.167-22.06H125.3l4.112,22.06h-4.494l-.735-4.657h-3.241l-.763,4.657Zm5.8-7.571h2.342l-1.171-8.606Zm9.423,7.571V-6.854L136.2-22.677h-5.147v-3.3h9.94v2.751L135.517-7.208h5.529v3.3Z" transform="translate(-2.002 26.272)" fill="#fff"/>
      <path id="Path_5352" data-name="Path 5352" d="M-144.624-1.811V-9.682h.994V-6.25h2.451V-9.682h1.008v7.871h-1.008V-5.5h-2.451v3.69Zm11.82.123a2.036,2.036,0,0,1-1.26-.347,1.871,1.871,0,0,1-.647-1.008,5.889,5.889,0,0,1-.191-1.614V-6.836a5.889,5.889,0,0,1,.191-1.614,1.871,1.871,0,0,1,.647-1.008A2.036,2.036,0,0,1-132.8-9.8a2.056,2.056,0,0,1,1.28.347,1.888,1.888,0,0,1,.64,1.008,5.89,5.89,0,0,1,.191,1.614v2.179a5.89,5.89,0,0,1-.191,1.614,1.888,1.888,0,0,1-.64,1.008A2.056,2.056,0,0,1-132.8-1.689Zm0-.749a.954.954,0,0,0,.756-.272,1.368,1.368,0,0,0,.293-.769A10.4,10.4,0,0,0-131.7-4.6V-6.89a10.167,10.167,0,0,0-.054-1.123,1.386,1.386,0,0,0-.293-.763.941.941,0,0,0-.756-.279.92.92,0,0,0-.749.279,1.418,1.418,0,0,0-.286.763,10.163,10.163,0,0,0-.054,1.123V-4.6a10.4,10.4,0,0,0,.054,1.123,1.4,1.4,0,0,0,.286.769A.932.932,0,0,0-132.8-2.437Zm7.394.626V-9.682h1.906a2.246,2.246,0,0,1,1.205.272,1.586,1.586,0,0,1,.62.7,2.237,2.237,0,0,1,.191.919,2.58,2.58,0,0,1-.2,1.014,1.248,1.248,0,0,1-.8.688,1.335,1.335,0,0,1,.715.429,1.868,1.868,0,0,1,.361.715,3.316,3.316,0,0,1,.109.858,3.653,3.653,0,0,1-.177,1.185,1.5,1.5,0,0,1-.626.8,2.388,2.388,0,0,1-1.28.286Zm.98-.763h.858a1.371,1.371,0,0,0,.742-.177,1.018,1.018,0,0,0,.409-.524,2.451,2.451,0,0,0,.129-.851,2.23,2.23,0,0,0-.157-.946.894.894,0,0,0-.422-.443,1.5,1.5,0,0,0-.633-.123h-.926Zm0-3.786h.994a.931.931,0,0,0,.749-.34,1.509,1.509,0,0,0,.286-.994,1.248,1.248,0,0,0-.306-.919,1.228,1.228,0,0,0-.906-.306h-.817Zm10.186,4.671a2.036,2.036,0,0,1-1.26-.347,1.87,1.87,0,0,1-.647-1.008,5.89,5.89,0,0,1-.191-1.614V-6.836a5.89,5.89,0,0,1,.191-1.614,1.87,1.87,0,0,1,.647-1.008,2.036,2.036,0,0,1,1.26-.347,2.056,2.056,0,0,1,1.28.347,1.888,1.888,0,0,1,.64,1.008,5.89,5.89,0,0,1,.191,1.614v2.179a5.89,5.89,0,0,1-.191,1.614,1.888,1.888,0,0,1-.64,1.008A2.056,2.056,0,0,1-114.244-1.689Zm0-.749a.954.954,0,0,0,.756-.272,1.368,1.368,0,0,0,.293-.769,10.4,10.4,0,0,0,.054-1.123V-6.89a10.167,10.167,0,0,0-.054-1.123,1.386,1.386,0,0,0-.293-.763.941.941,0,0,0-.756-.279.92.92,0,0,0-.749.279,1.418,1.418,0,0,0-.286.763,10.163,10.163,0,0,0-.054,1.123V-4.6a10.4,10.4,0,0,0,.054,1.123,1.4,1.4,0,0,0,.286.769A.932.932,0,0,0-114.244-2.437Zm9.355.749a1.992,1.992,0,0,1-1.375-.409,1.986,1.986,0,0,1-.592-1.11A7.98,7.98,0,0,1-107-4.793V-6.631a7.5,7.5,0,0,1,.177-1.791,1.79,1.79,0,0,1,.633-1.042,2.143,2.143,0,0,1,1.3-.34,2.155,2.155,0,0,1,1.266.313,1.524,1.524,0,0,1,.586.885,5.238,5.238,0,0,1,.15,1.321V-6.9h-.926v-.381a4.378,4.378,0,0,0-.1-1.076.884.884,0,0,0-.34-.538,1.137,1.137,0,0,0-.633-.157,1.033,1.033,0,0,0-.708.218,1.185,1.185,0,0,0-.327.715,8.552,8.552,0,0,0-.082,1.328v2.206a4.229,4.229,0,0,0,.231,1.668.9.9,0,0,0,.9.483,1,1,0,0,0,.694-.211,1.053,1.053,0,0,0,.3-.633,6.75,6.75,0,0,0,.068-1.049v-.436h.926v.381a6.113,6.113,0,0,1-.143,1.4,1.664,1.664,0,0,1-.579.953A2.02,2.02,0,0,1-104.89-1.689Zm8.279-.123V-8.919h-1.7v-.763h4.371v.763h-1.675v7.108Zm7.435,0V-9.682h.994V-6.25h2.451V-9.682h1.008v7.871H-85.73V-5.5h-2.451v3.69Zm11.82.123a2.036,2.036,0,0,1-1.26-.347,1.87,1.87,0,0,1-.647-1.008,5.89,5.89,0,0,1-.191-1.614V-6.836a5.89,5.89,0,0,1,.191-1.614,1.87,1.87,0,0,1,.647-1.008,2.036,2.036,0,0,1,1.26-.347,2.056,2.056,0,0,1,1.28.347,1.888,1.888,0,0,1,.64,1.008,5.89,5.89,0,0,1,.191,1.614v2.179a5.89,5.89,0,0,1-.191,1.614,1.888,1.888,0,0,1-.64,1.008A2.056,2.056,0,0,1-77.356-1.689Zm0-.749A.954.954,0,0,0-76.6-2.71a1.368,1.368,0,0,0,.293-.769A10.4,10.4,0,0,0-76.253-4.6V-6.89a10.163,10.163,0,0,0-.054-1.123,1.386,1.386,0,0,0-.293-.763.941.941,0,0,0-.756-.279.92.92,0,0,0-.749.279,1.418,1.418,0,0,0-.286.763,10.163,10.163,0,0,0-.054,1.123V-4.6a10.4,10.4,0,0,0,.054,1.123,1.4,1.4,0,0,0,.286.769A.932.932,0,0,0-77.356-2.437Zm7.394.626V-9.682h.844v6.06l2.628-6.06h.8v7.871h-.844V-7.857l-2.6,6.046Zm2.151-8.715a1.578,1.578,0,0,1-1.2-.429,1.773,1.773,0,0,1-.436-1.205h.64a1.069,1.069,0,0,0,.279.79,1.013,1.013,0,0,0,.715.245,1.033,1.033,0,0,0,.729-.245,1.11,1.11,0,0,0,.293-.79h.626a1.706,1.706,0,0,1-.429,1.205A1.621,1.621,0,0,1-67.81-10.526Zm16.2,8.837A1.992,1.992,0,0,1-52.981-2.1a1.986,1.986,0,0,1-.592-1.11,7.981,7.981,0,0,1-.143-1.586V-6.631a7.5,7.5,0,0,1,.177-1.791,1.79,1.79,0,0,1,.633-1.042,2.143,2.143,0,0,1,1.3-.34,2.155,2.155,0,0,1,1.266.313,1.524,1.524,0,0,1,.586.885,5.237,5.237,0,0,1,.15,1.321V-6.9h-.926v-.381a4.377,4.377,0,0,0-.1-1.076.884.884,0,0,0-.34-.538,1.137,1.137,0,0,0-.633-.157,1.033,1.033,0,0,0-.708.218,1.185,1.185,0,0,0-.327.715,8.552,8.552,0,0,0-.082,1.328v2.206a4.229,4.229,0,0,0,.231,1.668.9.9,0,0,0,.9.483,1,1,0,0,0,.694-.211,1.054,1.054,0,0,0,.3-.633A6.748,6.748,0,0,0-50.53-4.33v-.436h.926v.381a6.113,6.113,0,0,1-.143,1.4,1.664,1.664,0,0,1-.579.953A2.02,2.02,0,0,1-51.606-1.689Zm8.606,0a1.452,1.452,0,0,1-.831-.238,1.612,1.612,0,0,1-.551-.64,1.964,1.964,0,0,1-.2-.878,2.732,2.732,0,0,1,.17-1.021,2.021,2.021,0,0,1,.545-.756,4.955,4.955,0,0,1,.98-.654q.606-.32,1.477-.715v-.558A5.72,5.72,0,0,0-41.5-8.286a1.029,1.029,0,0,0-.3-.592.9.9,0,0,0-.592-.177,1.232,1.232,0,0,0-.558.123.9.9,0,0,0-.395.415,1.8,1.8,0,0,0-.15.81v.272l-.98-.014a2.729,2.729,0,0,1,.511-1.777A2.039,2.039,0,0,1-42.333-9.8a1.669,1.669,0,0,1,1.491.633A3.564,3.564,0,0,1-40.413-7.2v3.826q0,.2.014.524t.027.606q.014.286.027.436h-.885q-.027-.259-.082-.579T-41.38-2.9a1.977,1.977,0,0,1-.579.844A1.514,1.514,0,0,1-43-1.689Zm.313-.844a1.024,1.024,0,0,0,.545-.15,1.964,1.964,0,0,0,.436-.361,1.937,1.937,0,0,0,.3-.429V-5.923q-.586.3-1,.545a4.279,4.279,0,0,0-.674.477,1.455,1.455,0,0,0-.381.524,1.772,1.772,0,0,0-.123.688,1.212,1.212,0,0,0,.272.892A.872.872,0,0,0-42.687-2.533Zm7.639.722V-9.682h.844v6.06l2.628-6.06h.8v7.871h-.844V-7.857l-2.6,6.046Zm2.151-8.715a1.578,1.578,0,0,1-1.2-.429,1.773,1.773,0,0,1-.436-1.205h.64a1.069,1.069,0,0,0,.279.79,1.013,1.013,0,0,0,.715.245,1.033,1.033,0,0,0,.729-.245,1.11,1.11,0,0,0,.293-.79h.626a1.706,1.706,0,0,1-.429,1.205A1.621,1.621,0,0,1-32.9-10.526ZM-24.3-1.811V-8.919h-1.7v-.763h4.371v.763H-23.31v7.108Z" transform="translate(161.114 36.936)" fill="#fff"/>
      <g id="Group_3250" data-name="Group 3250" transform="translate(0 24.912)">
        <path id="Path_5355" data-name="Path 5355" d="M-884.745-24.468a5.964,5.964,0,0,1-5.957-5.957,5.964,5.964,0,0,1,5.957-5.958,5.965,5.965,0,0,1,5.958,5.958A5.964,5.964,0,0,1-884.745-24.468Zm0-10.212A4.26,4.26,0,0,0-889-30.425a4.26,4.26,0,0,0,4.255,4.255,4.26,4.26,0,0,0,4.255-4.255A4.26,4.26,0,0,0-884.745-34.681Z" transform="translate(890.702 36.383)" fill="#f74056"/>
        <path id="Path_5354" data-name="Path 5354" d="M2.553,0A2.553,2.553,0,1,1,0,2.553,2.553,2.553,0,0,1,2.553,0Z" transform="translate(3.404 3.404)" fill="#d20f26"/>
      </g>
    </g>
  </g>
</svg>
