<svg width="24" height="24" viewBox="0 0 24 24" fill="none" xmlns="http://www.w3.org/2000/svg">
<g id="outline/text-size">
<g id="Vector">
<path d="M17.8602 5.93001C17.8602 6.34001 18.2002 6.68001 18.6102 6.68001C19.0202 6.68001 19.3602 6.34001 19.3602 5.93001V4.42001C19.3602 2.98001 18.1902 1.82001 16.7602 1.82001H3.84023C2.41023 1.82001 1.24023 2.99001 1.24023 4.42001V5.93001C1.24023 6.34001 1.57023 6.68001 1.98023 6.68001C2.39023 6.68001 2.73023 6.34001 2.73023 5.93001V4.42001C2.73023 3.81001 3.23023 3.32001 3.83023 3.32001H9.5498V17.35H6.8999C6.4899 17.35 6.1499 17.69 6.1499 18.1C6.1499 18.51 6.4899 18.85 6.8999 18.85H10.2929L10.2998 18.85L10.3068 18.85H12.4799C12.8899 18.85 13.2299 18.51 13.2299 18.1C13.2299 17.69 12.8899 17.35 12.4799 17.35H11.0498V3.32001H16.7602C17.3702 3.32001 17.8602 3.82001 17.8602 4.42001V5.93001Z" fill="#161B1F"/>
<path d="M21.2602 12.45C21.2602 12.86 21.6002 13.2 22.0102 13.2C22.4302 13.2 22.7602 12.87 22.7602 12.45V11.65C22.7602 10.51 21.8302 9.58002 20.6902 9.58002H13.6802C13.2702 9.58002 12.9302 9.92002 12.9302 10.33C12.9302 10.74 13.2702 11.08 13.6802 11.08H15.3301V20.68H13.9399C13.5299 20.68 13.1899 21.02 13.1899 21.43C13.1899 21.84 13.5299 22.18 13.9399 22.18H16.0777L16.0801 22.18L16.0825 22.18H18.2199C18.6299 22.18 18.9699 21.84 18.9699 21.43C18.9699 21.02 18.6299 20.68 18.2199 20.68H16.8301V11.08H20.6902C21.0002 11.08 21.2602 11.34 21.2602 11.65V12.45Z" fill="#161B1F"/>
</g>
</g>
</svg>
