<svg xmlns="http://www.w3.org/2000/svg" width="20" height="20" viewBox="0 0 20 20">
    <g id="wp" transform="translate(-391.901 -113.901)">
      <rect id="Rectangle_1784" data-name="Rectangle 1784" width="20" height="20" transform="translate(391.901 113.901)" fill="none"/>
      <g id="whatsapp" transform="translate(393.891 115.891)">
        <g id="Group_3220" data-name="Group 3220">
          <path id="Path_4898" data-name="Path 4898" d="M8.012,0h0A8.005,8.005,0,0,0,1.525,12.705l-1,2.976L3.606,14.7A8.009,8.009,0,1,0,8.012,0Zm4.661,11.311a2.26,2.26,0,0,1-1.572,1.13c-.419.089-.965.16-2.806-.6A10.034,10.034,0,0,1,4.307,8.317,4.575,4.575,0,0,1,3.356,5.9a2.557,2.557,0,0,1,.819-1.949,1.164,1.164,0,0,1,.819-.287c.1,0,.188.005.268.009.235.01.353.024.509.4.193.466.664,1.615.72,1.733a.477.477,0,0,1,.034.434,1.384,1.384,0,0,1-.259.367c-.118.136-.23.24-.348.386-.108.127-.23.263-.094.5A7.11,7.11,0,0,0,7.123,9.1,5.889,5.889,0,0,0,9,10.261a.506.506,0,0,0,.565-.089,9.691,9.691,0,0,0,.626-.829.447.447,0,0,1,.575-.174c.216.075,1.361.641,1.6.758s.39.174.448.273A2,2,0,0,1,12.673,11.311Z" fill="#003366"/>
        </g>
      </g>
    </g>
  </svg>
  